<?xml version="1.0" standalone="no"?>
<!DOCTYPE svg PUBLIC "-//W3C//DTD SVG 20010904//EN"
 "http://www.w3.org/TR/2001/REC-SVG-20010904/DTD/svg10.dtd">
<svg version="1.0" xmlns="http://www.w3.org/2000/svg"
 width="128.000000pt" height="128.000000pt" viewBox="0 0 128.000000 128.000000"
 preserveAspectRatio="xMidYMid meet">
<metadata>
Created by potrace 1.10, written by Peter Selinger 2001-2011
</metadata>
<g transform="translate(0.000000,128.000000) scale(0.100000,-0.100000)"
fill="#ffffff" stroke="none">
<path d="M1179 1257 c-258 -131 -1155 -627 -1167 -644 -13 -20 -13 -26 1 -45
11 -18 50 -33 168 -67 85 -25 157 -47 162 -51 4 -3 18 -91 31 -194 13 -104 29
-193 35 -199 8 -8 16 -9 29 -1 14 9 86 102 168 219 13 18 22 11 162 -128 82
-81 155 -147 163 -147 40 0 49 27 194 610 80 322 147 595 150 607 3 15 -2 30
-15 43 -25 25 -27 25 -81 -3z m66 -17 c4 -7 -204 -860 -286 -1172 -5 -21 -15
-38 -22 -38 -7 0 -77 65 -157 145 -80 80 -150 145 -155 145 -16 0 -53 -43
-124 -143 -59 -83 -81 -103 -81 -74 0 27 -40 336 -45 350 -9 22 -37 33 -194
80 -80 24 -146 48 -148 54 -4 11 42 39 202 124 50 26 293 158 540 293 248 134
453 245 457 245 4 1 9 -3 13 -9z"/>
<path d="M970 1069 c-91 -50 -207 -113 -259 -141 -347 -186 -519 -282 -538
-300 -42 -40 -7 -60 218 -124 13 -4 364 235 499 340 8 6 -2 -11 -21 -39 -20
-27 -84 -117 -142 -198 -59 -81 -112 -157 -118 -168 -10 -19 5 -37 137 -170
82 -82 154 -149 161 -149 7 0 19 12 26 28 8 15 67 240 132 501 120 479 123
502 84 508 -8 1 -88 -38 -179 -88z m65 -422 c-68 -269 -125 -490 -127 -492 -2
-3 -66 58 -141 133 l-137 137 199 275 c109 151 197 277 195 279 -1 2 -22 -12
-46 -31 -81 -65 -567 -408 -578 -408 -12 0 -212 59 -217 64 -2 2 207 117 464
256 258 139 477 259 487 266 11 8 21 13 22 11 0 -1 -54 -222 -121 -490z"/>
</g>
</svg>
