<?xml version="1.0" standalone="no"?>
<!DOCTYPE svg PUBLIC "-//W3C//DTD SVG 20010904//EN"
 "http://www.w3.org/TR/2001/REC-SVG-20010904/DTD/svg10.dtd">
<svg version="1.0" xmlns="http://www.w3.org/2000/svg"
 width="128.000000pt" height="128.000000pt" viewBox="0 0 128.000000 128.000000"
 preserveAspectRatio="xMidYMid meet">
<metadata>
Created by potrace 1.10, written by Peter Selinger 2001-2011
</metadata>
<g transform="translate(0.000000,128.000000) scale(0.100000,-0.100000)"
fill="#ffffff" stroke="none">
<path d="M50 695 l0 -585 -25 0 c-21 0 -25 -5 -25 -31 0 -28 2 -31 25 -25 23
6 25 3 25 -24 0 -25 4 -30 24 -30 19 0 25 6 28 25 l3 26 588 -1 587 0 0 30 0
30 -590 0 -590 0 0 585 0 585 -25 0 -25 0 0 -585z m46 -606 c10 -17 -13 -36
-27 -22 -12 12 -4 33 11 33 5 0 12 -5 16 -11z"/>
<path d="M950 835 l-154 -156 -102 102 c-56 56 -106 100 -112 98 -11 -4 -351
-288 -385 -322 -14 -15 -16 -21 -6 -33 6 -8 17 -14 23 -13 6 0 91 69 190 152
l179 152 101 -102 c56 -57 106 -103 112 -103 18 0 356 348 352 362 -13 39 -47
15 -198 -137z"/>
<path d="M1021 737 c-8 -11 -11 -91 -9 -293 l3 -279 75 0 75 0 0 290 0 290
-66 3 c-47 2 -69 -1 -78 -11z m99 -283 l0 -244 -30 0 -30 0 0 238 c0 131 2
241 4 243 2 2 16 5 30 5 l26 2 0 -244z"/>
<path d="M482 428 l3 -263 75 0 75 0 0 260 0 260 -78 3 -77 3 2 -263z m108 -3
l0 -215 -30 0 -30 0 0 215 0 215 30 0 30 0 0 -215z"/>
<path d="M215 467 c-3 -7 -4 -78 -3 -157 l3 -145 75 0 75 0 0 155 0 155 -73 3
c-53 2 -74 -1 -77 -11z m105 -147 l0 -110 -30 0 -30 0 0 110 0 110 30 0 30 0
0 -110z"/>
<path d="M750 470 c-4 -76 0 -292 5 -299 8 -14 132 -14 140 0 5 7 9 223 5 299
0 6 -32 10 -75 10 -43 0 -75 -4 -75 -10z m100 -150 l0 -110 -25 0 -25 0 0 110
0 110 25 0 25 0 0 -110z"/>
</g>
</svg>
