<?xml version="1.0" standalone="no"?>
<!DOCTYPE svg PUBLIC "-//W3C//DTD SVG 20010904//EN"
 "http://www.w3.org/TR/2001/REC-SVG-20010904/DTD/svg10.dtd">
<svg version="1.0" xmlns="http://www.w3.org/2000/svg"
 width="128.000000pt" height="128.000000pt" viewBox="0 0 128.000000 128.000000"
 preserveAspectRatio="xMidYMid meet">
<metadata>
Created by potrace 1.10, written by Peter Selinger 2001-2011
</metadata>
<g transform="translate(0.000000,128.000000) scale(0.100000,-0.100000)"
fill="#ffffff" stroke="none">
<path d="M33 1193 c17 -198 133 -490 233 -590 l54 -54 0 -93 c0 -149 37 -243
131 -331 27 -25 75 -58 107 -73 51 -24 69 -27 167 -27 100 0 115 3 166 28 88
43 143 98 186 185 l38 76 3 236 4 237 39 17 c50 22 81 67 87 126 8 90 -48 159
-138 168 -64 6 -114 -19 -145 -73 -48 -81 -21 -173 62 -217 l45 -23 -4 -225
c-3 -223 -4 -226 -32 -287 -33 -73 -103 -144 -174 -176 -37 -17 -66 -22 -137
-22 -78 0 -98 4 -150 28 -77 36 -147 110 -176 185 -14 38 -23 89 -27 153 l-5
96 46 11 c117 30 239 250 297 533 11 53 20 116 20 138 l0 42 -82 -3 c-75 -3
-83 -5 -83 -23 0 -17 8 -20 58 -23 l58 -3 -7 -37 c-43 -244 -120 -438 -211
-529 -83 -84 -156 -50 -240 112 -61 119 -113 278 -137 417 l-7 37 78 3 c70 3
78 5 78 23 0 19 -8 20 -104 23 l-104 3 6 -68z m1133 -177 c45 -45 47 -92 5
-138 -25 -28 -36 -33 -75 -33 -63 0 -101 37 -101 99 0 97 103 140 171 72z"/>
</g>
</svg>
